<mxfile host="app.diagrams.net" modified="2021-01-02T05:59:01.972Z" agent="5.0 (Windows NT 10.0; Win64; x64) AppleWebKit/537.36 (KHTML, like Gecko) Chrome/87.0.4280.88 Safari/537.36" etag="2zKCVy31ThJmDG2Mlfih" version="14.1.6" type="github">
  <diagram id="kgpKYQtTHZ0yAKxKKP6v" name="Page-1">
    <mxGraphModel dx="1038" dy="580" grid="1" gridSize="10" guides="1" tooltips="1" connect="1" arrows="1" fold="1" page="1" pageScale="1" pageWidth="850" pageHeight="1100" math="0" shadow="0">
      <root>
        <mxCell id="0" />
        <mxCell id="1" parent="0" />
        <mxCell id="4NYd1-KPjSIx7XgBMQbb-1" value="" style="shape=umlLifeline;participant=umlActor;perimeter=lifelinePerimeter;whiteSpace=wrap;html=1;container=1;collapsible=0;recursiveResize=0;verticalAlign=top;spacingTop=36;outlineConnect=0;" vertex="1" parent="1">
          <mxGeometry x="180" y="40" width="20" height="400" as="geometry" />
        </mxCell>
        <mxCell id="4NYd1-KPjSIx7XgBMQbb-5" value="" style="html=1;points=[];perimeter=orthogonalPerimeter;" vertex="1" parent="4NYd1-KPjSIx7XgBMQbb-1">
          <mxGeometry x="5" y="80" width="10" height="240" as="geometry" />
        </mxCell>
        <mxCell id="4NYd1-KPjSIx7XgBMQbb-2" value=":Giao diện" style="shape=umlLifeline;perimeter=lifelinePerimeter;whiteSpace=wrap;html=1;container=1;collapsible=0;recursiveResize=0;outlineConnect=0;" vertex="1" parent="1">
          <mxGeometry x="360" y="40" width="100" height="400" as="geometry" />
        </mxCell>
        <mxCell id="4NYd1-KPjSIx7XgBMQbb-6" value="" style="html=1;points=[];perimeter=orthogonalPerimeter;" vertex="1" parent="4NYd1-KPjSIx7XgBMQbb-2">
          <mxGeometry x="45" y="100" width="10" height="220" as="geometry" />
        </mxCell>
        <mxCell id="4NYd1-KPjSIx7XgBMQbb-11" value="Gửi thông tin lên hệ thống" style="html=1;verticalAlign=bottom;endArrow=block;" edge="1" parent="4NYd1-KPjSIx7XgBMQbb-2">
          <mxGeometry width="80" relative="1" as="geometry">
            <mxPoint x="60" y="200" as="sourcePoint" />
            <mxPoint x="282" y="200" as="targetPoint" />
          </mxGeometry>
        </mxCell>
        <mxCell id="4NYd1-KPjSIx7XgBMQbb-3" value=":Server" style="shape=umlLifeline;perimeter=lifelinePerimeter;whiteSpace=wrap;html=1;container=1;collapsible=0;recursiveResize=0;outlineConnect=0;" vertex="1" parent="1">
          <mxGeometry x="600" y="40" width="100" height="400" as="geometry" />
        </mxCell>
        <mxCell id="4NYd1-KPjSIx7XgBMQbb-10" value="" style="html=1;points=[];perimeter=orthogonalPerimeter;" vertex="1" parent="4NYd1-KPjSIx7XgBMQbb-3">
          <mxGeometry x="45" y="170" width="10" height="150" as="geometry" />
        </mxCell>
        <mxCell id="4NYd1-KPjSIx7XgBMQbb-13" value="Kiểm tra mật khẩu cũ&lt;br&gt;và đặt lại mật khẩu mới" style="edgeStyle=orthogonalEdgeStyle;html=1;align=left;spacingLeft=2;endArrow=block;rounded=0;entryX=1;entryY=0;" edge="1" parent="4NYd1-KPjSIx7XgBMQbb-3">
          <mxGeometry relative="1" as="geometry">
            <mxPoint x="55" y="210" as="sourcePoint" />
            <Array as="points">
              <mxPoint x="80" y="210" />
            </Array>
            <mxPoint x="60" y="230" as="targetPoint" />
          </mxGeometry>
        </mxCell>
        <mxCell id="4NYd1-KPjSIx7XgBMQbb-4" value="Người dùng" style="text;align=center;fontStyle=1;verticalAlign=middle;spacingLeft=3;spacingRight=3;strokeColor=none;rotatable=0;points=[[0,0.5],[1,0.5]];portConstraint=eastwest;" vertex="1" parent="1">
          <mxGeometry x="150" y="80" width="80" height="26" as="geometry" />
        </mxCell>
        <mxCell id="4NYd1-KPjSIx7XgBMQbb-7" value="Mở giao diện đổi mật khẩu" style="html=1;verticalAlign=bottom;endArrow=block;" edge="1" parent="1">
          <mxGeometry width="80" relative="1" as="geometry">
            <mxPoint x="200" y="150" as="sourcePoint" />
            <mxPoint x="400" y="150" as="targetPoint" />
          </mxGeometry>
        </mxCell>
        <mxCell id="4NYd1-KPjSIx7XgBMQbb-8" value="Hiển thị giao diện đổi mật khẩu" style="html=1;verticalAlign=bottom;endArrow=block;" edge="1" parent="1">
          <mxGeometry width="80" relative="1" as="geometry">
            <mxPoint x="400" y="180" as="sourcePoint" />
            <mxPoint x="200" y="180" as="targetPoint" />
            <Array as="points">
              <mxPoint x="330" y="180" />
            </Array>
          </mxGeometry>
        </mxCell>
        <mxCell id="4NYd1-KPjSIx7XgBMQbb-9" value="Nhập mật khẩu cũ và mật khẩu mới" style="html=1;verticalAlign=bottom;endArrow=block;" edge="1" parent="1">
          <mxGeometry width="80" relative="1" as="geometry">
            <mxPoint x="200" y="210" as="sourcePoint" />
            <mxPoint x="400" y="210" as="targetPoint" />
          </mxGeometry>
        </mxCell>
        <mxCell id="4NYd1-KPjSIx7XgBMQbb-14" value="Mật khẩu đã được đổi" style="html=1;verticalAlign=bottom;endArrow=block;" edge="1" parent="1">
          <mxGeometry width="80" relative="1" as="geometry">
            <mxPoint x="640" y="290" as="sourcePoint" />
            <mxPoint x="420" y="290" as="targetPoint" />
            <Array as="points">
              <mxPoint x="560" y="290" />
            </Array>
          </mxGeometry>
        </mxCell>
        <mxCell id="4NYd1-KPjSIx7XgBMQbb-15" value="Thông báo đổi mật khẩu thành công" style="html=1;verticalAlign=bottom;endArrow=block;" edge="1" parent="1">
          <mxGeometry width="80" relative="1" as="geometry">
            <mxPoint x="400" y="300" as="sourcePoint" />
            <mxPoint x="200" y="300" as="targetPoint" />
          </mxGeometry>
        </mxCell>
      </root>
    </mxGraphModel>
  </diagram>
</mxfile>
